<?xml version="1.0" encoding="iso-8859-1"?>
<!-- Uploaded to: SVG Repo, www.svgrepo.com, Generator: SVG Repo Mixer Tools -->
<svg version="1.1" id="Layer_1" xmlns="http://www.w3.org/2000/svg" xmlns:xlink="http://www.w3.org/1999/xlink" 
	 viewBox="0 0 512 512" xml:space="preserve">
<path style="fill:#FFE49C;" d="M472.178,431.024H39.822C17.864,431.024,0,413.16,0,391.202V120.79
	c0-21.958,17.864-39.822,39.822-39.822h432.356c21.958,0,39.822,17.864,39.822,39.822v270.412
	C512,413.16,494.136,431.024,472.178,431.024z"/>
<g>
	<path style="fill:#FFD155;" d="M472.178,80.968H256v350.057h216.178c21.958,0,39.822-17.864,39.822-39.822V120.79
		C512,98.833,494.136,80.968,472.178,80.968z"/>
	<rect x="132.881" y="80.972" style="fill:#FFD155;" width="246.227" height="350.06"/>
</g>
<rect x="256" y="80.972" style="fill:#FFBE00;" width="123.119" height="350.06"/>
<path style="fill:#FFE49C;" d="M187.262,311.934V200.06c0-12.714,13.463-20.991,24.814-15.208L321.88,240.79
	c12.407,6.32,12.404,24.096,0,30.414l-109.804,55.938C200.798,332.885,187.262,324.741,187.262,311.934z"/>
<g>
	<polygon style="fill:#FFD155;" points="98.752,431.024 132.886,431.024 132.886,80.968 98.752,80.968 98.752,164.231 0,164.231 
		0,198.365 98.752,198.365 98.752,238.93 0,238.93 0,273.063 98.752,273.063 98.752,313.628 0,313.628 0,347.762 98.752,347.762 	
		"/>
	<path style="fill:#FFD155;" d="M321.88,240.789L256,207.228v97.536l65.88-33.561C334.284,264.885,334.287,247.111,321.88,240.789z"
		/>
</g>
<path style="fill:#FFBE00;" d="M512,313.628h-98.752v-40.565H512V238.93h-98.752v-40.565H512v-34.133h-98.752V80.969h-34.133
	c0,9.292,0,308.46,0,350.057h34.133v-83.263H512V313.628z"/>
</svg>